<svg width="16" height="20" viewBox="0 0 16 20" fill="none" xmlns="http://www.w3.org/2000/svg">
<path d="M7.46401 20C12.1607 20 15.0832 16.5392 15.0832 12.0742C15.0832 10.3908 14.809 8.87083 12.8982 8.41417C13.3632 7.14083 14.7048 3.4575 14.7048 2.2775C14.7048 1.23833 14.0798 0.3675 12.9657 0.3675C11.1898 0.3675 9.59818 5.51167 9.09984 6.73833C8.71401 5.625 6.90734 0 5.31484 0C4.07734 0 3.49651 0.894167 3.49651 2.01917C3.49651 3.39833 4.85734 6.9725 5.35068 8.3475C5.10068 8.2575 4.82984 8.17917 4.55401 8.17917C3.62234 8.17917 2.63151 9.31583 2.63151 10.2342C2.63151 10.5817 2.82651 11.07 2.94984 11.3942C1.48151 11.785 0.916509 12.7458 0.916509 14.195C0.912342 17.015 3.63568 20 7.46401 20V20ZM11.489 4.21917C11.649 3.73833 12.329 1.7075 12.9657 1.7075C13.3082 1.7075 13.3998 2.055 13.3998 2.3325C13.3998 3.07833 11.864 7.2 11.5248 8.11333L10.1715 7.87917L11.489 4.21917ZM4.74651 1.8875V1.88667C4.74651 1.42167 5.32401 0.101667 6.58901 3.72667L7.96651 7.645C7.34568 7.59417 6.86401 7.5275 6.55818 7.7C6.12401 6.575 4.74651 3.02417 4.74651 1.8875V1.8875ZM4.65484 9.53083L4.65568 9.53167C5.82151 9.53167 7.32651 13.2267 7.32651 13.7267C7.32651 13.9258 7.13151 14.1717 6.90484 14.1717C6.07234 14.1717 3.84318 11.1675 3.84318 10.355C3.84651 10.0542 4.34818 9.53083 4.65484 9.53083V9.53083ZM3.31484 12.5892C3.76818 12.5892 5.47568 14.945 5.47568 15.445C5.47568 15.6367 5.16901 15.7692 5.01068 15.7692C4.36984 15.7692 4.11901 15.1633 2.97734 13.7617C1.79484 14.9217 3.79318 17.1558 5.29818 17.1558C6.33651 17.1558 7.01318 16.2108 6.81068 15.515C6.95818 15.515 7.14068 15.5267 7.27651 15.4917C7.32068 16.55 7.63901 17.8117 8.93651 17.9017C8.93651 17.8667 9.01651 17.6242 9.01651 17.6125C9.01651 16.9325 8.59484 16.3392 8.59484 15.6475C8.59484 14.5417 9.45818 13.4717 10.334 12.8467C10.6523 12.6125 11.039 12.4675 11.4123 12.335C11.799 12.1908 12.209 12.0225 12.5023 11.7333C12.4582 11.2958 12.2757 10.9092 11.8298 10.9092C10.7273 10.9092 7.02984 11.0658 7.02984 9.35833C7.02984 9.09667 7.03401 8.84667 7.72318 8.84667C9.00901 8.84667 12.2732 9.15917 13.2282 9.98333C13.9482 10.6125 14.1957 14.405 11.994 16.8075L11.9915 16.8083C10.8332 18.0583 9.35234 18.7067 7.62484 18.7067C5.26068 18.7067 3.39318 17.4333 2.49401 15.2575C1.81318 13.5625 2.64568 12.5892 3.31484 12.5892V12.5892ZM8.06568 11.8858C8.45318 12.0075 8.85068 12.0433 9.24901 12.1208C8.95401 12.3317 8.69234 12.59 8.44068 12.8667C8.32901 12.535 8.19318 12.2108 8.06568 11.8858Z" fill="#505F79"/>
</svg>
