<svg width="20" height="20" viewBox="0 0 20 20" fill="none" xmlns="http://www.w3.org/2000/svg">
<path d="M19.7665 0.369643C19.4331 -0.0290272 18.8665 -0.128695 18.4331 0.170308L16.4998 1.49921C15.5998 0.535755 14.3331 0.00419528 12.9665 0.00419528C10.2665 0.00419528 8.03313 2.19688 8.03313 4.92113C8.03313 5.3198 8.06646 5.68524 8.16646 6.05069C5.83313 5.55235 4.43313 3.85801 3.8998 0.801535C3.83313 0.402865 3.53313 0.103863 3.13313 0.00419528C2.76646 -0.0954722 2.36646 0.0706403 2.13313 0.369643C2.06646 0.436088 -3.43354 8.07726 4.53313 14.5557C3.76646 16.1836 1.46646 17.5789 0.566463 18.044C0.13313 18.2434 -0.06687 18.7085 0.03313 19.1736C0.13313 19.6387 0.53313 19.9377 0.999797 19.9377H2.73313C12.8665 19.9377 17.4665 14.9211 17.5665 3.69189L19.6665 1.69854C20.0665 1.36632 20.0998 0.768313 19.7665 0.369643Z" fill="#505F79"/>
</svg>
